<?xml version="1.0" standalone="no"?><!DOCTYPE svg PUBLIC "-//W3C//DTD SVG 1.1//EN" "http://www.w3.org/Graphics/SVG/1.1/DTD/svg11.dtd"><svg t="1482810428197" class="icon" style="" viewBox="0 0 1920 1024" version="1.1" xmlns="http://www.w3.org/2000/svg" p-id="7155" xmlns:xlink="http://www.w3.org/1999/xlink" width="120" height="64"><defs><style type="text/css"></style></defs><path d="M106.666667 0l1706.666667 0c58.922667 0 106.666667 47.765333 106.666667 106.666667l0 810.666667c0 58.922667-47.744 106.666667-106.666667 106.666667L106.666667 1024c-58.901333 0-106.666667-47.744-106.666667-106.666667L0 106.666667C0 47.765333 47.765333 0 106.666667 0zM909.76 393.92c-1.408 143.168-10.794667 248.789333-24.405333 279.765333-4.266667 8.917333-9.877333 11.264-29.12 11.264C834.517333 684.714667 812.864 682.666667 791.466667 678.826667c4.096 10.048 6.634667 20.672 7.509333 31.466667 24.874667 1.877333 43.648 2.816 54.442667 2.816 16.234667 1.813333 32.64-1.450667 46.933333-9.386667 13.290667-15.701333 21.162667-35.285333 22.528-55.829333 11.349333-81.344 16.853333-163.392 16.426667-245.504-0.341333-12.224 0.298667-24.469333 1.877333-36.608-13.717333 1.472-27.52 2.090667-41.301333 1.877333l-128.618667 0c6.570667-16.896 8.533333-22.528 13.610667-39.424 5.162667-14.549333 7.04-20.181333 8.917333-24.874667l-32.384-7.978667c-2.432 18.944-6.997333 37.546667-13.610667 55.466667-12.650667 38.272-32.981333 73.578667-59.733333 103.744 8.490667 5.184 15.978667 11.861333 22.058667 19.712 20.288-24.362667 37.205333-51.370667 50.24-80.277333l149.333333 0L909.76 393.92zM885.333333 615.466667c-11.584-42.581333-27.306667-83.925333-46.933333-123.456l-23.466667 10.325333c10.965333 20.842667 20.224 42.496 27.733333 64.789333-9.856 2.325333-28.16 6.592-38.016 7.978667-34.730667 6.101333-34.730667 6.101333-45.056 8.512 9.28-22.826667 17.28-46.165333 23.936-69.909333 19.2-70.4 19.2-70.4 21.589333-76.992l-30.976-7.04c-1.877333 16.597333-4.864 33.066667-8.917333 49.28-6.101333 25.344-20.650667 75.584-25.813333 87.786667-2.88 11.285333-11.712 20.117333-23.018667 22.997333l5.162667 27.2c18.794667-4.245333 45.546667-9.856 63.850667-12.672 22.997333-3.754667 40.362667-7.509333 61.013333-12.672l3.754667-0.96c4.266667 14.954667 5.162667 18.794667 9.386667 37.077333L885.333333 615.466667zM571.733333 608c-0.938667-12.672-1.408-24.426667-1.408-42.24L570.325333 338.986667 659.2 338.986667l0 225.322667c0.213333 14.570667-0.405333 29.141333-1.877333 43.648l31.445333 0c-1.493333-14.805333-2.133333-29.717333-1.877333-44.586667l0-208.896c0-16.896 0.469333-32.384 1.408-43.178667-11.84 1.450667-23.744 2.090667-35.669333 1.877333l-70.890667 0c-20.181333 0-27.733333-0.469333-40.832-1.408 1.450667 14.656 2.069333 29.376 1.877333 44.117333l0 209.813333c0 16.874667-0.469333 30.016-1.408 42.218667l30.506667 0L571.733333 608zM699.413333 690.624c-14.933333-24.853333-31.210667-48.874667-48.746667-71.957333l-22.528 14.549333c17.813333 23.509333 33.088 48.853333 45.525333 75.584L699.413333 690.624zM598.037333 372.757333c2.602667 20.053333 3.541333 40.32 2.816 60.544L600.853333 514.133333c2.645333 41.024-3.434667 82.133333-17.856 120.64-14.592 27.861333-37.141333 50.730667-64.768 65.728 8.768 6.122667 16.512 13.568 22.997333 22.058667 25.770667-16.981333 47.189333-39.808 62.442667-66.645333 17.365333-32 24.405333-70.890667 24.405333-141.76l0-81.749333c0-25.813333 0.469333-44.586667 1.877333-59.605333l-32 0L598.037333 372.757333zM1234.005333 549.248c6.314667-40.874667 9.770667-82.112 10.325333-123.456 0-14.762667 1.088-29.504 3.285333-44.117333l-38.421333 0c2.88 14.528 4.117333 29.312 3.754667 44.117333 0.085333 41.365333-3.370667 82.666667-10.325333 123.456l-152.576 0c-17.130667 0.384-34.24-0.554667-51.2-2.816l0 34.730667c16.96-2.24 34.090667-3.157333 51.2-2.837333L1194.666667 578.325333c-12.010667 29.952-35.008 54.122667-64.298667 67.584-43.285333 23.381333-90.88 37.76-139.882667 42.24 9.002667 8.533333 16.042667 18.965333 20.629333 30.506667 42.410667-7.381333 83.626667-20.501333 122.538667-38.954667 53.013333-26.261333 78.378667-53.952 93.845333-101.376l131.904 0c17.578667-0.170667 35.114667 0.746667 52.586667 2.816l0-34.666667c-17.408 2.517333-35.008 3.434667-52.586667 2.816l-125.333333 0L1234.005333 549.248zM1019.52 355.413333c16.981333-2.24 34.090667-3.178667 51.178667-2.816l293.845333 0c-9.066667 27.328-22.186667 53.12-38.976 76.522667 11.008 1.877333 21.44 6.229333 30.549333 12.672 15.616-25.301333 28.501333-52.224 38.4-80.277333 2.432-7.701333 5.44-15.232 8.917333-22.528L1386.666667 321.621333c-14.293333 2.282667-28.757333 3.072-43.2 2.346667L1070.698667 323.968c-17.130667 0.384-34.24-0.554667-51.2-2.816L1019.52 355.413333 1019.52 355.413333zM1154.709333 495.765333c-34.218667-18.602667-70.250667-33.706667-107.498667-45.056l-18.282667 25.344c37.674667 11.2 73.92 26.816 107.968 46.464L1154.709333 495.765333zM1222.784 632.832c60.629333 23.552 119.189333 52.074667 175.082667 85.333333l19.178667-28.16c-57.429333-31.701333-117.034667-59.285333-178.346667-82.581333L1222.784 632.832zM1183.808 426.666667c-31.637333-18.901333-65.152-34.474667-99.989333-46.464l-18.282667 23.936c35.776 12.138667 69.952 28.522667 101.824 48.810667L1183.808 426.666667z" p-id="7156" fill="#707070"></path></svg>